<svg id="SvgjsSvg1006" width="724" height="859" xmlns="http://www.w3.org/2000/svg" version="1.1" xmlns:xlink="http://www.w3.org/1999/xlink" xmlns:svgjs="http://svgjs.com/svgjs"><defs id="SvgjsDefs1007"><marker id="SvgjsMarker1114" markerWidth="14" markerHeight="12" refX="16" refY="6" viewBox="0 0 14 12" orient="auto" markerUnits="userSpaceOnUse"><path id="SvgjsPath1115" d="M1,1 L14,6 L1,11L1,1" fill="#ffffff" stroke="#323232" stroke-width="2"></path></marker><marker id="SvgjsMarker1122" markerWidth="14" markerHeight="12" refX="16" refY="6" viewBox="0 0 14 12" orient="auto" markerUnits="userSpaceOnUse"><path id="SvgjsPath1123" d="M1,1 L14,6 L1,11L1,1" fill="#ffffff" stroke="#323232" stroke-width="2"></path></marker><marker id="SvgjsMarker1126" markerWidth="16" markerHeight="16" refX="11" refY="8" viewBox="0 0 16 16" orient="auto" markerUnits="userSpaceOnUse"><path id="SvgjsPath1127" d="M0,0 L10,8 L0,16" fill="none" stroke="#323232" stroke-width="2"></path></marker><marker id="SvgjsMarker1130" markerWidth="16" markerHeight="16" refX="11" refY="8" viewBox="0 0 16 16" orient="auto" markerUnits="userSpaceOnUse"><path id="SvgjsPath1131" d="M0,0 L10,8 L0,16" fill="none" stroke="#323232" stroke-width="2"></path></marker><marker id="SvgjsMarker1152" markerWidth="20" markerHeight="12" refX="20" refY="6" viewBox="0 0 20 12" orient="auto" markerUnits="userSpaceOnUse"><path id="SvgjsPath1153" d="M2,6 L10,2 L18,6 L10,10L2,6" fill="#ffffff" stroke="#323232" stroke-width="2"></path></marker><marker id="SvgjsMarker1160" markerWidth="20" markerHeight="12" refX="20" refY="6" viewBox="0 0 20 12" orient="auto" markerUnits="userSpaceOnUse"><path id="SvgjsPath1161" d="M2,6 L10,2 L18,6 L10,10L2,6" fill="#ffffff" stroke="#323232" stroke-width="2"></path></marker><marker id="SvgjsMarker1192" markerWidth="16" markerHeight="16" refX="11" refY="8" viewBox="0 0 16 16" orient="auto" markerUnits="userSpaceOnUse"><path id="SvgjsPath1193" d="M0,0 L10,8 L0,16" fill="none" stroke="#323232" stroke-width="2"></path></marker><marker id="SvgjsMarker1196" markerWidth="16" markerHeight="16" refX="11" refY="8" viewBox="0 0 16 16" orient="auto" markerUnits="userSpaceOnUse"><path id="SvgjsPath1197" d="M0,0 L10,8 L0,16" fill="none" stroke="#323232" stroke-width="2"></path></marker></defs><g id="SvgjsG1008" transform="translate(543,25)"><path id="SvgjsPath1009" d="M 0 4Q 0 0 4 0L 152 0Q 156 0 156 4L 156 63Q 156 67 152 67L 4 67Q 0 67 0 63Z" stroke="#323232" stroke-width="2" fill-opacity="1" fill="#ffffff"></path><g id="SvgjsG1010"><text id="SvgjsText1011" font-family="微软雅黑" text-anchor="middle" font-size="13px" width="61" fill="#323232" font-weight="400" align="middle" anchor="middle" family="微软雅黑" size="13px" weight="400" font-style="" y="23.55" transform="rotate(0)"><tspan id="SvgjsTspan1012" dy="16" x="78"><tspan id="SvgjsTspan1013" style="text-decoration:;">Consumer</tspan></tspan></text></g></g><g id="SvgjsG1014" transform="translate(359,25)"><path id="SvgjsPath1015" d="M 0 4Q 0 0 4 0L 152 0Q 156 0 156 4L 156 63Q 156 67 152 67L 4 67Q 0 67 0 63Z" stroke="#323232" stroke-width="2" fill-opacity="1" fill="#ffffff"></path><g id="SvgjsG1016"><text id="SvgjsText1017" font-family="微软雅黑" text-anchor="middle" font-size="13px" width="35" fill="#323232" font-weight="400" align="middle" anchor="middle" family="微软雅黑" size="13px" weight="400" font-style="" y="23.55" transform="rotate(0)"><tspan id="SvgjsTspan1018" dy="16" x="78"><tspan id="SvgjsTspan1019" style="text-decoration:;">Client</tspan></tspan></text></g></g><g id="SvgjsG1020" transform="translate(25,424.5)"><path id="SvgjsPath1021" d="M 0 4Q 0 0 4 0L 298 0Q 302 0 302 4L 302 199Q 302 203 298 203L 4 203Q 0 203 0 199Z" stroke="#323232" stroke-width="2" fill-opacity="1" fill="#ffffff"></path><path id="SvgjsPath1022" d="M 0 30L 302 30M 0 80L 302 80" stroke="#323232" stroke-width="2" fill="none"></path><path id="SvgjsPath1023" d="M 0 0L 302 0L 302 203L 0 203Z" stroke="none" fill="none"></path><g id="SvgjsG1024"><text id="SvgjsText1025" font-family="微软雅黑" text-anchor="middle" font-size="13px" width="35" fill="#323232" font-weight="700" align="middle" anchor="middle" family="微软雅黑" size="13px" weight="700" font-style="" y="5.05" transform="rotate(0)"><tspan id="SvgjsTspan1026" dy="16" x="151"><tspan id="SvgjsTspan1027" style="text-decoration:;">Topic</tspan></tspan></text></g><g id="SvgjsG1028"><text id="SvgjsText1029" font-family="微软雅黑" text-anchor="start" font-size="13px" width="214" fill="#323232" font-weight="400" align="middle" anchor="start" family="微软雅黑" size="13px" weight="400" font-style="" y="28.05" transform="rotate(0)"><tspan id="SvgjsTspan1030" dy="16" x="10"><tspan id="SvgjsTspan1031" style="text-decoration:;">+ channelMap map[string]*Channel</tspan></tspan><tspan id="SvgjsTspan1032" dy="16" x="10"><tspan id="SvgjsTspan1033" style="text-decoration:;">+ backend BackendQueue</tspan></tspan><tspan id="SvgjsTspan1034" dy="16" x="10"><tspan id="SvgjsTspan1035" style="text-decoration:;">+ messageCOunt</tspan></tspan></text></g><g id="SvgjsG1036"><text id="SvgjsText1037" font-family="微软雅黑" text-anchor="start" font-size="13px" width="239" fill="#323232" font-weight="400" align="middle" anchor="start" family="微软雅黑" size="13px" weight="400" font-style="" y="92.55" transform="rotate(0)"><tspan id="SvgjsTspan1038" dy="16" x="10"><tspan id="SvgjsTspan1039" style="text-decoration:;">+ AddChannel(channelName)+ </tspan></tspan><tspan id="SvgjsTspan1040" dy="16" x="10"><tspan id="SvgjsTspan1041" style="text-decoration:;">DeleteChannel(channelName)+ </tspan></tspan><tspan id="SvgjsTspan1042" dy="16" x="10"><tspan id="SvgjsTspan1043" style="text-decoration:;">CreateChannel(channelName):Channel+ </tspan></tspan><tspan id="SvgjsTspan1044" dy="16" x="10"><tspan id="SvgjsTspan1045" style="text-decoration:;">PutMessage(msg)- </tspan></tspan><tspan id="SvgjsTspan1046" dy="16" x="10"><tspan id="SvgjsTspan1047" style="text-decoration:;">putMessage(msg:Message)- </tspan></tspan><tspan id="SvgjsTspan1048" dy="16" x="10"><tspan id="SvgjsTspan1049" style="text-decoration:;">processDeferredMsg()...</tspan></tspan></text></g></g><g id="SvgjsG1050" transform="translate(431,447)"><path id="SvgjsPath1051" d="M 0 4Q 0 0 4 0L 226 0Q 230 0 230 4L 230 154Q 230 158 226 158L 4 158Q 0 158 0 154Z" stroke="#323232" stroke-width="2" fill-opacity="1" fill="#ffffff"></path><path id="SvgjsPath1052" d="M 0 30L 230 30M 0 96L 230 96" stroke="#323232" stroke-width="2" fill="none"></path><path id="SvgjsPath1053" d="M 0 0L 230 0L 230 158L 0 158Z" stroke="none" fill="none"></path><g id="SvgjsG1054"><text id="SvgjsText1055" font-family="微软雅黑" text-anchor="middle" font-size="13px" width="13" fill="#323232" font-weight="700" align="middle" anchor="middle" family="微软雅黑" size="13px" weight="700" font-style="" y="5.05" transform="rotate(0)"><tspan id="SvgjsTspan1056" dy="16" x="115"><tspan id="SvgjsTspan1057" style="text-decoration:;">类</tspan></tspan></text></g><g id="SvgjsG1058"><text id="SvgjsText1059" font-family="微软雅黑" text-anchor="start" font-size="13px" width="198" fill="#323232" font-weight="400" align="middle" anchor="start" family="微软雅黑" size="13px" weight="400" font-style="" y="28.05" transform="rotate(0)"><tspan id="SvgjsTspan1060" dy="16" x="10"><tspan id="SvgjsTspan1061" style="text-decoration:;">- clients map[int64]Consumer</tspan></tspan><tspan id="SvgjsTspan1062" dy="16" x="10"><tspan id="SvgjsTspan1063" style="text-decoration:;">- backendQueue BackendQueue</tspan></tspan><tspan id="SvgjsTspan1064" dy="16" x="10"><tspan id="SvgjsTspan1065" style="text-decoration:;">- topicName string</tspan></tspan><tspan id="SvgjsTspan1066" dy="16" x="10"><tspan id="SvgjsTspan1067" style="text-decoration:;">- messageCount uint64</tspan></tspan></text></g><g id="SvgjsG1068"><text id="SvgjsText1069" font-family="微软雅黑" text-anchor="start" font-size="13px" width="201" fill="#323232" font-weight="400" align="middle" anchor="start" family="微软雅黑" size="13px" weight="400" font-style="" y="102.05" transform="rotate(0)"><tspan id="SvgjsTspan1070" dy="16" x="10"><tspan id="SvgjsTspan1071" style="text-decoration:;">+ AddClient(params):returnType- </tspan></tspan><tspan id="SvgjsTspan1072" dy="16" x="10"><tspan id="SvgjsTspan1073" style="text-decoration:;">putMessage(params)- </tspan></tspan><tspan id="SvgjsTspan1074" dy="16" x="10"><tspan id="SvgjsTspan1075" style="text-decoration:;">processDeferredMsg()...</tspan></tspan></text></g></g><g id="SvgjsG1076" transform="translate(431,140)"><path id="SvgjsPath1077" d="M 0 4Q 0 0 4 0L 226 0Q 230 0 230 4L 230 218Q 230 222 226 222L 4 222Q 0 222 0 218Z" stroke="#323232" stroke-width="2" fill-opacity="1" fill="#ffffff"></path><path id="SvgjsPath1078" d="M 0 30L 230 30M 0 142L 230 142" stroke="#323232" stroke-width="2" fill="none"></path><path id="SvgjsPath1079" d="M 0 0L 230 0L 230 222L 0 222Z" stroke="none" fill="none"></path><g id="SvgjsG1080"><text id="SvgjsText1081" font-family="微软雅黑" text-anchor="middle" font-size="13px" width="48" fill="#323232" font-weight="700" align="middle" anchor="middle" family="微软雅黑" size="13px" weight="700" font-style="" y="5.05" transform="rotate(0)"><tspan id="SvgjsTspan1082" dy="16" x="115"><tspan id="SvgjsTspan1083" style="text-decoration:;">clientv2</tspan></tspan></text></g><g id="SvgjsG1084"><text id="SvgjsText1085" font-family="微软雅黑" text-anchor="start" font-size="13px" width="145" fill="#323232" font-weight="400" align="middle" anchor="start" family="微软雅黑" size="13px" weight="400" font-style="" y="28.05" transform="rotate(0)"><tspan id="SvgjsTspan1086" dy="16" x="10"><tspan id="SvgjsTspan1087" style="text-decoration:;">+ ReadyCount    int64+ </tspan></tspan><tspan id="SvgjsTspan1088" dy="16" x="10"><tspan id="SvgjsTspan1089" style="text-decoration:;">InFlightCount int64+ </tspan></tspan><tspan id="SvgjsTspan1090" dy="16" x="10"><tspan id="SvgjsTspan1091" style="text-decoration:;">MessageCount  uint64+ </tspan></tspan><tspan id="SvgjsTspan1092" dy="16" x="10"><tspan id="SvgjsTspan1093" style="text-decoration:;">FinishCount   uint64+ </tspan></tspan><tspan id="SvgjsTspan1094" dy="16" x="10"><tspan id="SvgjsTspan1095" style="text-decoration:;">RequeueCount  uint64</tspan></tspan><tspan id="SvgjsTspan1096" dy="16" x="10"><tspan id="SvgjsTspan1097" style="text-decoration:;">- net.Conn</tspan></tspan><tspan id="SvgjsTspan1098" dy="16" x="10"><tspan id="SvgjsTspan1099" style="text-decoration:;">...</tspan></tspan></text></g><g id="SvgjsG1100"><text id="SvgjsText1101" font-family="微软雅黑" text-anchor="start" font-size="13px" width="199" fill="#323232" font-weight="400" align="middle" anchor="start" family="微软雅黑" size="13px" weight="400" font-style="" y="140.05" transform="rotate(0)"><tspan id="SvgjsTspan1102" dy="16" x="10"><tspan id="SvgjsTspan1103" style="text-decoration:;">+ RequeuedMessgae</tspan></tspan><tspan id="SvgjsTspan1104" dy="16" x="10"><tspan id="SvgjsTspan1105" style="text-decoration:;">+ PublicshedMessage</tspan></tspan><tspan id="SvgjsTspan1106" dy="16" x="10"><tspan id="SvgjsTspan1107" style="text-decoration:;">+ SendingMessgae</tspan></tspan><tspan id="SvgjsTspan1108" dy="16" x="10"><tspan id="SvgjsTspan1109" style="text-decoration:;">+ FinishedMessage （统计函数）</tspan></tspan><tspan id="SvgjsTspan1110" dy="16" x="10"><tspan id="SvgjsTspan1111" style="text-decoration:;">---</tspan></tspan></text></g></g><g id="SvgjsG1112"><path id="SvgjsPath1113" d="M546 140L546 116L437 116L437 92" stroke-dasharray="8,5" stroke="#323232" stroke-width="2" fill="none" marker-end="url(#SvgjsMarker1114)"></path><rect id="SvgjsRect1116" width="26" height="16" x="478.5" y="108" fill="#ffffff"></rect><text id="SvgjsText1117" font-family="微软雅黑" text-anchor="middle" font-size="13px" width="26" fill="#323232" font-weight="400" align="top" anchor="middle" family="微软雅黑" size="13px" weight="400" font-style="" y="106.05" transform="rotate(0)"><tspan id="SvgjsTspan1118" dy="16" x="491.5"><tspan id="SvgjsTspan1119" style="text-decoration:;">实现</tspan></tspan></text></g><g id="SvgjsG1120"><path id="SvgjsPath1121" d="M546 140L546 116L621 116L621 92" stroke-dasharray="8,5" stroke="#323232" stroke-width="2" fill="none" marker-end="url(#SvgjsMarker1122)"></path></g><g id="SvgjsG1124"><path id="SvgjsPath1125" d="M327 526L379 526L379 526L431 526" stroke="#323232" stroke-width="2" fill="none" marker-end="url(#SvgjsMarker1126)"></path></g><g id="SvgjsG1128"><path id="SvgjsPath1129" d="M546 447L546 404.5L546 404.5L546 362" stroke="#323232" stroke-width="2" fill="none" marker-end="url(#SvgjsMarker1130)"></path></g><g id="SvgjsG1132" transform="translate(327,708)"><path id="SvgjsPath1133" d="M 0 4Q 0 0 4 0L 226 0Q 230 0 230 4L 230 122Q 230 126 226 126L 4 126Q 0 126 0 122Z" stroke="#323232" stroke-width="2" fill-opacity="1" fill="#ffffff"></path><path id="SvgjsPath1134" d="M 0 30L 230 30" stroke="#323232" stroke-width="2" fill="none"></path><path id="SvgjsPath1135" d="M 0 0L 230 0L 230 126L 0 126Z" stroke="none" fill="none"></path><g id="SvgjsG1136"><text id="SvgjsText1137" font-family="微软雅黑" text-anchor="middle" font-size="13px" width="94" fill="#323232" font-weight="700" align="middle" anchor="middle" family="微软雅黑" size="13px" weight="700" font-style="" y="5.05" transform="rotate(0)"><tspan id="SvgjsTspan1138" dy="16" x="115"><tspan id="SvgjsTspan1139" style="text-decoration:;">BackendQueue</tspan></tspan></text></g><g id="SvgjsG1140"><text id="SvgjsText1141" font-family="微软雅黑" text-anchor="start" font-size="13px" width="192" fill="#323232" font-weight="400" align="middle" anchor="start" family="微软雅黑" size="13px" weight="400" font-style="" y="44.05" transform="rotate(0)"><tspan id="SvgjsTspan1142" dy="16" x="10"><tspan id="SvgjsTspan1143" style="text-decoration:;">+ Put([]byte) error+ ReadChan() </tspan></tspan><tspan id="SvgjsTspan1144" dy="16" x="10"><tspan id="SvgjsTspan1145" style="text-decoration:;">&lt;-chan []byte*+ Close() error+ </tspan></tspan><tspan id="SvgjsTspan1146" dy="16" x="10"><tspan id="SvgjsTspan1147" style="text-decoration:;">Delete() error+ Depth() int64+ </tspan></tspan><tspan id="SvgjsTspan1148" dy="16" x="10"><tspan id="SvgjsTspan1149" style="text-decoration:;">Empty() error</tspan></tspan></text></g></g><g id="SvgjsG1150"><path id="SvgjsPath1151" d="M442 708L442 667.75L176 667.75L176 627.5" stroke="#323232" stroke-width="2" fill="none" marker-end="url(#SvgjsMarker1152)"></path><rect id="SvgjsRect1154" width="26" height="16" x="296" y="659.75" fill="#ffffff"></rect><text id="SvgjsText1155" font-family="微软雅黑" text-anchor="middle" font-size="13px" width="26" fill="#323232" font-weight="400" align="top" anchor="middle" family="微软雅黑" size="13px" weight="400" font-style="" y="657.8" transform="rotate(0)"><tspan id="SvgjsTspan1156" dy="16" x="309"><tspan id="SvgjsTspan1157" style="text-decoration:;">聚合</tspan></tspan></text></g><g id="SvgjsG1158"><path id="SvgjsPath1159" d="M557 771L587 771L587 635L546 635L546 605" stroke="#323232" stroke-width="2" fill="none" marker-end="url(#SvgjsMarker1160)"></path><rect id="SvgjsRect1162" width="26" height="16" x="574" y="674.5" fill="#ffffff"></rect><text id="SvgjsText1163" font-family="微软雅黑" text-anchor="middle" font-size="13px" width="26" fill="#323232" font-weight="400" align="top" anchor="middle" family="微软雅黑" size="13px" weight="400" font-style="" y="672.55" transform="rotate(0)"><tspan id="SvgjsTspan1164" dy="16" x="587"><tspan id="SvgjsTspan1165" style="text-decoration:;">聚合</tspan></tspan></text></g><g id="SvgjsG1166" transform="translate(35,197)"><path id="SvgjsPath1167" d="M 0 4Q 0 0 4 0L 226 0Q 230 0 230 4L 230 152Q 230 156 226 156L 4 156Q 0 156 0 152Z" stroke="#323232" stroke-width="2" fill-opacity="1" fill="#ffffff"></path><path id="SvgjsPath1168" d="M 0 30L 230 30M 0 126L 230 126" stroke="#323232" stroke-width="2" fill="none"></path><path id="SvgjsPath1169" d="M 0 0L 230 0L 230 156L 0 156Z" stroke="none" fill="none"></path><g id="SvgjsG1170"><text id="SvgjsText1171" font-family="微软雅黑" text-anchor="middle" font-size="13px" width="37" fill="#323232" font-weight="700" align="middle" anchor="middle" family="微软雅黑" size="13px" weight="700" font-style="" y="5.05" transform="rotate(0)"><tspan id="SvgjsTspan1172" dy="16" x="115"><tspan id="SvgjsTspan1173" style="text-decoration:;">NSQD</tspan></tspan></text></g><g id="SvgjsG1174"><text id="SvgjsText1175" font-family="微软雅黑" text-anchor="start" font-size="13px" width="206" fill="#323232" font-weight="400" align="middle" anchor="start" family="微软雅黑" size="13px" weight="400" font-style="" y="36.05" transform="rotate(0)"><tspan id="SvgjsTspan1176" dy="16" x="10"><tspan id="SvgjsTspan1177" style="text-decoration:;">+ tcpServer+ httpListener</tspan></tspan><tspan id="SvgjsTspan1178" dy="16" x="10"><tspan id="SvgjsTspan1179" style="text-decoration:;">+ clients    map[int64]Client //tcp </tspan></tspan><tspan id="SvgjsTspan1180" dy="16" x="10"><tspan id="SvgjsTspan1181" style="text-decoration:;">server的client存储</tspan></tspan><tspan id="SvgjsTspan1182" dy="16" x="10"><tspan id="SvgjsTspan1183" style="text-decoration:;">+ topicMap map[string]*Topic</tspan></tspan><tspan id="SvgjsTspan1184" dy="16" x="10"><tspan id="SvgjsTspan1185" style="text-decoration:;"> </tspan></tspan></text></g><g id="SvgjsG1186"><text id="SvgjsText1187" font-family="微软雅黑" text-anchor="start" font-size="13px" width="10" fill="#323232" font-weight="400" align="middle" anchor="start" family="微软雅黑" size="13px" weight="400" font-style="" y="131.05" transform="rotate(0)"><tspan id="SvgjsTspan1188" dy="16" x="10"><tspan id="SvgjsTspan1189" style="text-decoration:;">...</tspan></tspan></text></g></g><g id="SvgjsG1190"><path id="SvgjsPath1191" d="M150 353L150 388.75L176 388.75L176 424.5" stroke="#323232" stroke-width="2" fill="none" marker-end="url(#SvgjsMarker1192)"></path></g><g id="SvgjsG1194"><path id="SvgjsPath1195" d="M265 264L344 264L344 264L423 264" stroke="#323232" stroke-width="2" fill="none" marker-end="url(#SvgjsMarker1196)"></path><rect id="SvgjsRect1198" width="26" height="16" x="331" y="256" fill="#ffffff"></rect><text id="SvgjsText1199" font-family="微软雅黑" text-anchor="middle" font-size="13px" width="26" fill="#323232" font-weight="400" align="top" anchor="middle" family="微软雅黑" size="13px" weight="400" font-style="" y="254.05" transform="rotate(0)"><tspan id="SvgjsTspan1200" dy="16" x="344"><tspan id="SvgjsTspan1201" style="text-decoration:;">关联</tspan></tspan></text></g></svg>