<svg id="SvgjsSvg1094" width="600" height="429" xmlns="http://www.w3.org/2000/svg" version="1.1" xmlns:xlink="http://www.w3.org/1999/xlink" xmlns:svgjs="http://svgjs.com/svgjs"><defs id="SvgjsDefs1095"><marker id="SvgjsMarker1174" markerWidth="16" markerHeight="12" refX="16" refY="6" viewBox="0 0 16 12" orient="auto" markerUnits="userSpaceOnUse" stroke-dasharray="0,0"><path id="SvgjsPath1175" d="M0,2 L14,6 L0,11 L0,2" fill="#323232" stroke="#323232" stroke-width="2"></path></marker></defs><g id="SvgjsG1096" transform="translate(91,73)"><path id="SvgjsPath1097" d="M 0 149.5C 0 -49.833333333333336 299 -49.833333333333336 299 149.5C 299 348.8333333333333 0 348.8333333333333 0 149.5Z" stroke="rgba(50,50,50,1)" stroke-width="2" fill-opacity="1" fill="#ffffff"></path><g id="SvgjsG1098"><text id="SvgjsText1099" font-family="微软雅黑" text-anchor="middle" font-size="13px" width="279px" fill="#323232" font-weight="400" align="middle" anchor="middle" family="微软雅黑" size="13px" weight="400" font-style="" opacity="1" y="139.55" transform="rotate(0)"></text></g></g><g id="SvgjsG1100" transform="translate(129,100)"><path id="SvgjsPath1101" d="M 0 10C 0 -3.3333333333333335 21 -3.3333333333333335 21 10C 21 23.333333333333332 0 23.333333333333332 0 10Z" stroke="rgba(50,50,50,1)" stroke-width="2" fill-opacity="1" fill="#3399ff"></path><g id="SvgjsG1102"><text id="SvgjsText1103" font-family="微软雅黑" text-anchor="middle" font-size="13px" width="1px" fill="#323232" font-weight="400" align="middle" anchor="middle" family="微软雅黑" size="13px" weight="400" font-style="" opacity="1" y="0.050000000000000044" transform="rotate(0)"></text></g></g><g id="SvgjsG1104" transform="translate(82,230)"><path id="SvgjsPath1105" d="M 0 10C 0 -3.3333333333333335 21 -3.3333333333333335 21 10C 21 23.333333333333332 0 23.333333333333332 0 10Z" stroke="rgba(50,50,50,1)" stroke-width="2" fill-opacity="1" fill="#3399ff"></path><g id="SvgjsG1106"><text id="SvgjsText1107" font-family="微软雅黑" text-anchor="middle" font-size="13px" width="1px" fill="#323232" font-weight="400" align="middle" anchor="middle" family="微软雅黑" size="13px" weight="400" font-style="" opacity="1" y="0.050000000000000044" transform="rotate(0)"></text></g></g><g id="SvgjsG1108" transform="translate(324,332)"><path id="SvgjsPath1109" d="M 0 10C 0 -3.3333333333333335 21 -3.3333333333333335 21 10C 21 23.333333333333332 0 23.333333333333332 0 10Z" stroke="rgba(50,50,50,1)" stroke-width="2" fill-opacity="1" fill="#3399ff"></path><g id="SvgjsG1110"><text id="SvgjsText1111" font-family="微软雅黑" text-anchor="middle" font-size="13px" width="1px" fill="#323232" font-weight="400" align="middle" anchor="middle" family="微软雅黑" size="13px" weight="400" font-style="" opacity="1" y="0.050000000000000044" transform="rotate(0)"></text></g></g><g id="SvgjsG1112" transform="translate(269,69)"><path id="SvgjsPath1113" d="M 0 10C 0 -3.3333333333333335 21 -3.3333333333333335 21 10C 21 23.333333333333332 0 23.333333333333332 0 10Z" stroke="rgba(50,50,50,1)" stroke-width="2" fill-opacity="1" fill="#ffcc99"></path><g id="SvgjsG1114"><text id="SvgjsText1115" font-family="微软雅黑" text-anchor="middle" font-size="13px" width="1px" fill="#ff9933" font-weight="400" align="middle" anchor="middle" family="微软雅黑" size="13px" weight="400" font-style="" opacity="1" y="0.050000000000000044" transform="rotate(0)"></text></g></g><g id="SvgjsG1116" transform="translate(163,346)"><path id="SvgjsPath1117" d="M 0 10C 0 -3.3333333333333335 21 -3.3333333333333335 21 10C 21 23.333333333333332 0 23.333333333333332 0 10Z" stroke="rgba(50,50,50,1)" stroke-width="2" fill-opacity="1" fill="#ffcc99"></path><g id="SvgjsG1118"><text id="SvgjsText1119" font-family="微软雅黑" text-anchor="middle" font-size="13px" width="1px" fill="#323232" font-weight="400" align="middle" anchor="middle" family="微软雅黑" size="13px" weight="400" font-style="" opacity="1" y="0.050000000000000044" transform="rotate(0)"></text></g></g><g id="SvgjsG1120" transform="translate(378,203.5)"><path id="SvgjsPath1121" d="M 0 10C 0 -3.3333333333333335 21 -3.3333333333333335 21 10C 21 23.333333333333332 0 23.333333333333332 0 10Z" stroke="rgba(50,50,50,1)" stroke-width="2" fill-opacity="1" fill="#ff3333"></path><g id="SvgjsG1122"><text id="SvgjsText1123" font-family="微软雅黑" text-anchor="middle" font-size="13px" width="1px" fill="#323232" font-weight="400" align="middle" anchor="middle" family="微软雅黑" size="13px" weight="400" font-style="" opacity="1" y="0.050000000000000044" transform="rotate(0)"></text></g></g><g id="SvgjsG1124" transform="translate(67,69)"><path id="SvgjsPath1125" d="M 0 0L 51 0L 51 35L 0 35Z" stroke="none" fill="none"></path><g id="SvgjsG1126"><text id="SvgjsText1127" font-family="微软雅黑" text-anchor="middle" font-size="13px" width="51px" fill="#323232" font-weight="400" align="middle" anchor="middle" family="微软雅黑" size="13px" weight="400" font-style="" opacity="1" y="-0.44999999999999996" transform="rotate(0)"><tspan id="SvgjsTspan1128" dy="16" x="25.5"><tspan id="SvgjsTspan1129" style="text-decoration:;">shard1</tspan></tspan><tspan id="SvgjsTspan1130" dy="16" x="25.5"><tspan id="SvgjsTspan1131" style="text-decoration:;">ep:3</tspan></tspan></text></g></g><g id="SvgjsG1132" transform="translate(25,227)"><path id="SvgjsPath1133" d="M 0 0L 51 0L 51 35L 0 35Z" stroke="none" fill="none"></path><g id="SvgjsG1134"><text id="SvgjsText1135" font-family="微软雅黑" text-anchor="middle" font-size="13px" width="51px" fill="#323232" font-weight="400" align="middle" anchor="middle" family="微软雅黑" size="13px" weight="400" font-style="" opacity="1" y="-0.44999999999999996" transform="rotate(0)"><tspan id="SvgjsTspan1136" dy="16" x="25.5"><tspan id="SvgjsTspan1137" style="text-decoration:;">shard1</tspan></tspan><tspan id="SvgjsTspan1138" dy="16" x="25.5"><tspan id="SvgjsTspan1139" style="text-decoration:;">ep:3</tspan></tspan></text></g></g><g id="SvgjsG1140" transform="translate(345,346)"><path id="SvgjsPath1141" d="M 0 0L 51 0L 51 35L 0 35Z" stroke="none" fill="none"></path><g id="SvgjsG1142"><text id="SvgjsText1143" font-family="微软雅黑" text-anchor="middle" font-size="13px" width="51px" fill="#323232" font-weight="400" align="middle" anchor="middle" family="微软雅黑" size="13px" weight="400" font-style="" opacity="1" y="-0.44999999999999996" transform="rotate(0)"><tspan id="SvgjsTspan1144" dy="16" x="25.5"><tspan id="SvgjsTspan1145" style="text-decoration:;">shard1</tspan></tspan><tspan id="SvgjsTspan1146" dy="16" x="25.5"><tspan id="SvgjsTspan1147" style="text-decoration:;">ep:3</tspan></tspan></text></g></g><g id="SvgjsG1148" transform="translate(286,25)"><path id="SvgjsPath1149" d="M 0 0L 51 0L 51 35L 0 35Z" stroke="none" fill="none"></path><g id="SvgjsG1150"><text id="SvgjsText1151" font-family="微软雅黑" text-anchor="middle" font-size="13px" width="51px" fill="#323232" font-weight="400" align="middle" anchor="middle" family="微软雅黑" size="13px" weight="400" font-style="" opacity="1" y="-0.44999999999999996" transform="rotate(0)"><tspan id="SvgjsTspan1152" dy="16" x="25.5"><tspan id="SvgjsTspan1153" style="text-decoration:;">shard2</tspan></tspan><tspan id="SvgjsTspan1154" dy="16" x="25.5"><tspan id="SvgjsTspan1155" style="text-decoration:;">ep:2</tspan></tspan></text></g></g><g id="SvgjsG1156" transform="translate(118,369)"><path id="SvgjsPath1157" d="M 0 0L 51 0L 51 35L 0 35Z" stroke="none" fill="none"></path><g id="SvgjsG1158"><text id="SvgjsText1159" font-family="微软雅黑" text-anchor="middle" font-size="13px" width="51px" fill="#323232" font-weight="400" align="middle" anchor="middle" family="微软雅黑" size="13px" weight="400" font-style="" opacity="1" y="-0.44999999999999996" transform="rotate(0)"><tspan id="SvgjsTspan1160" dy="16" x="25.5"><tspan id="SvgjsTspan1161" style="text-decoration:;">shard2</tspan></tspan><tspan id="SvgjsTspan1162" dy="16" x="25.5"><tspan id="SvgjsTspan1163" style="text-decoration:;">ep:2</tspan></tspan></text></g></g><g id="SvgjsG1164" transform="translate(420,192)"><path id="SvgjsPath1165" d="M 0 0L 51 0L 51 35L 0 35Z" stroke="none" fill="none"></path><g id="SvgjsG1166"><text id="SvgjsText1167" font-family="微软雅黑" text-anchor="middle" font-size="13px" width="51px" fill="#323232" font-weight="400" align="middle" anchor="middle" family="微软雅黑" size="13px" weight="400" font-style="" opacity="1" y="-0.44999999999999996" transform="rotate(0)"><tspan id="SvgjsTspan1168" dy="16" x="25.5"><tspan id="SvgjsTspan1169" style="text-decoration:;">shard3</tspan></tspan><tspan id="SvgjsTspan1170" dy="16" x="25.5"><tspan id="SvgjsTspan1171" style="text-decoration:;">ep:1</tspan></tspan></text></g></g><g id="SvgjsG1172"><path id="SvgjsPath1173" d="M471 81C 426 79 392.2608547496493 90.09082904692809 354.4037333412861 121.85672565811922" stroke="#323232" stroke-width="2" fill="none" marker-end="url(#SvgjsMarker1174)"></path></g><g id="SvgjsG1176" transform="translate(488,47)"><path id="SvgjsPath1177" d="M 0 0L 87 0L 87 53L 0 53Z" stroke="none" fill="none"></path><g id="SvgjsG1178"><text id="SvgjsText1179" font-family="微软雅黑" text-anchor="middle" font-size="13px" width="87px" fill="#323232" font-weight="400" align="middle" anchor="middle" family="微软雅黑" size="13px" weight="400" font-style="" opacity="1" y="16.55" transform="rotate(0)"><tspan id="SvgjsTspan1180" dy="16" x="43.5"><tspan id="SvgjsTspan1181" style="text-decoration:;">pod_13edf323</tspan></tspan></text></g></g></svg>